<?xml version="1.0" encoding="UTF-8" standalone="no"?>
<!-- Created with Inkscape (http://www.inkscape.org/) -->

<svg
   width="256"
   height="256"
   viewBox="0 0 67.733332 67.733332"
   version="1.1"
   id="svg1"
   xml:space="preserve"
   inkscape:version="1.3.1 (91b66b0783, 2023-11-16)"
   sodipodi:docname="flor.svg"
   xmlns:inkscape="http://www.inkscape.org/namespaces/inkscape"
   xmlns:sodipodi="http://sodipodi.sourceforge.net/DTD/sodipodi-0.dtd"
   xmlns="http://www.w3.org/2000/svg"
   xmlns:svg="http://www.w3.org/2000/svg"><sodipodi:namedview
     id="namedview1"
     pagecolor="#ffffff"
     bordercolor="#000000"
     borderopacity="0.25"
     inkscape:showpageshadow="2"
     inkscape:pageopacity="0.0"
     inkscape:pagecheckerboard="0"
     inkscape:deskcolor="#d1d1d1"
     inkscape:document-units="mm"
     inkscape:zoom="1.4485269"
     inkscape:cx="144.62969"
     inkscape:cy="165.34038"
     inkscape:window-width="1920"
     inkscape:window-height="1009"
     inkscape:window-x="-8"
     inkscape:window-y="-8"
     inkscape:window-maximized="1"
     inkscape:current-layer="layer1" /><defs
     id="defs1" /><g
     inkscape:label="Camada 1"
     inkscape:groupmode="layer"
     id="layer1"><path
       style="fill:#070707;stroke:none;stroke-width:0.547444"
       d="m 26.190428,16.216441 c -0.472455,-0.182848 -0.890101,-0.578832 -1.317854,-0.8533 -0.895593,-0.574655 -1.816188,-1.117226 -2.795452,-1.540288 -2.613661,-1.129162 -5.543797,-1.857138 -8.406291,-1.823284 -1.282034,0.01527 -2.558506,0.255953 -3.821772,0.452605 -2.7363805,0.425973 -6.0510241,2.181976 -5.1027627,5.477477 0.3171494,1.102193 1.110376,2.206146 1.7422396,3.154509 1.460424,2.19194 3.1282021,4.269535 5.2055171,5.916352 0.843254,0.668495 1.721097,1.301708 2.663667,1.825469 0.432647,0.240415 1.175074,0.463916 1.421674,0.898445 -1.558699,0.155351 -3.443761,1.520826 -4.631294,2.484807 -1.61808,1.313477 -2.7793998,2.830486 -3.8813092,4.583801 -1.7354859,2.761442 -3.0461086,5.741569 -2.8842764,9.075081 0.1970465,4.058911 3.272236,8.662186 7.8933866,7.824134 1.746716,-0.316766 3.001235,-1.688262 3.860919,-3.139906 1.528674,-2.581288 2.232896,-6.462269 5.045768,-8.044746 0,2.407361 0.254049,4.513004 0.797624,6.852828 0.373586,1.608087 1.020015,3.158418 1.554226,4.716514 0.412643,1.203502 1.076415,2.467957 2.08436,3.278459 1.705459,1.371389 4.417504,1.157909 6.03904,-0.26881 1.022546,-0.89969 1.592099,-2.097351 2.298769,-3.234277 1.592015,-2.561319 3.048008,-5.20603 4.397567,-7.905139 0.552957,-1.105916 1.014976,-2.261573 1.557933,-3.373684 0.197219,-0.403932 0.309989,-1.010473 0.708806,-1.251952 0.17676,0.35843 0.514948,0.52057 0.806573,0.770623 0.629492,0.539767 1.245587,1.107096 1.860904,1.664751 1.872889,1.697364 3.671596,3.499751 5.369031,5.372844 0.843306,0.930575 1.395768,2.279337 1.952937,3.393516 1.110722,2.221165 2.109998,4.486276 2.871303,6.852826 0.540125,1.678992 0.631207,3.666395 -0.548591,5.111472 -0.380764,0.466375 -1.094871,0.594304 -1.424122,1.066889 -0.284245,0.408001 -0.08379,1.02931 0.398463,1.170349 0.759994,0.222284 1.557288,-0.463005 2.045724,-0.957163 1.360348,-1.376297 1.77554,-3.680666 1.331837,-5.516117 -1.023265,-4.232932 -3.091488,-8.50118 -5.419973,-12.177685 -1.086913,-1.716151 -2.505286,-3.309377 -3.494042,-5.073018 -0.323521,-0.577067 -0.289851,-1.340796 -0.610421,-1.942867 0.971616,0.175259 2.109854,1.005784 2.923886,1.548486 2.293905,1.529275 4.373688,3.37311 6.827254,4.662411 1.250624,0.657167 2.896962,1.225973 4.331065,0.875508 0.580139,-0.14178 1.019493,-0.45052 1.488888,-0.797009 3.552066,-2.622006 0.908176,-7.532045 -0.732137,-10.50652 -2.39388,-4.340986 -7.025256,-8.327006 -12.005577,-9.141989 -0.847602,-0.1387 -1.839541,-0.254873 -2.70159,-0.135094 -0.717147,0.09963 -1.456033,0.334945 -2.174459,0.381576 0.435608,-0.600618 1.310376,-0.973212 1.976776,-1.252671 1.636891,-0.686448 3.395637,-1.007903 5.128441,-1.334169 3.17652,-0.598111 6.038479,-1.958652 8.197168,-4.408961 1.565503,-1.77698 2.618175,-3.985442 3.446244,-6.18272 0.352538,-0.935466 0.721571,-1.898986 0.828089,-2.899274 0.177588,-1.667821 0.09062,-3.2257545 -1.157595,-4.5176658 C 61.075467,6.2512117 59.464909,5.7495376 58.016561,5.4400504 56.756735,5.1708492 55.290581,5.1896473 53.999705,5.2818321 51.090256,5.4895934 48.239231,6.8076078 45.808334,8.3584455 44.907838,8.9329295 44.079499,9.9933465 43.12483,10.417898 43.531161,7.2027544 42.409691,3.2362953 38.710025,2.7222379 37.55861,2.5622526 36.266528,2.7804107 35.170633,3.131218 30.779866,4.5367647 26.717572,8.8358605 26.717572,13.646634 26.123533,13.184105 25.862778,11.90444 25.63075,11.208608 25.229279,10.004668 24.967172,8.8352105 24.792905,7.5845147 24.745168,7.2417872 24.591587,6.8797443 24.604327,6.5302335 24.617526,6.1702064 24.897079,5.8455098 24.9316,5.4759508 25.053317,4.1731285 24.651682,2.8432404 23.846005,1.814129 23.256326,1.0609261 21.741291,0.52785171 21.054363,1.4669229 20.551161,2.1548377 20.61211,3.0364446 20.816928,3.8098714 c 0.237235,0.8958562 0.676681,1.8329243 1.299394,2.5226296 0.261209,0.2893085 0.922322,0.5400937 1.069235,0.8707395 0.243319,0.5476051 0.21009,1.299171 0.320309,1.885619 0.179165,0.9532215 0.481617,1.9098455 0.800423,2.8267235 0.295582,0.850101 0.64909,1.716217 1.050514,2.521762 0.277174,0.556198 0.69587,1.171633 0.833628,1.779101 m 11.201747,15.61655 c 0.147714,-0.29306 0.439998,-0.420248 0.67443,-0.637217 0.671507,-0.621467 1.287122,-2.233327 -0.213195,-2.099718 -0.242868,0.02153 -0.485214,0.05671 -0.724819,0.101217 -1.834159,-3.143042 -1.358848,-7.299278 -1.116613,-10.740486 0.03411,-0.484575 0.442954,-0.820023 0.624761,-1.251958 0.394652,-0.937611 0.308675,-2.20755 -0.19096,-3.090804 -0.355007,-0.627571 -1.298816,-1.054946 -1.900918,-0.477973 -0.428631,0.410742 -0.58505,1.220727 -0.577883,1.789676 0.01126,0.893071 0.527667,1.663599 0.588257,2.506514 0.06206,0.863091 -0.165592,1.773069 -0.248827,2.633112 -0.111932,1.15651 -0.03876,2.39636 -0.01024,3.558198 0.02644,1.077342 0.458888,2.104485 0.526174,3.162847 -0.426273,-0.298183 -0.750285,-1.001655 -1.010308,-1.449642 -0.485822,-0.836979 -1.040872,-1.641364 -1.561848,-2.45684 -0.864274,-1.352831 -1.706163,-2.716742 -2.536869,-4.089508 -0.381182,-0.629912 -0.919381,-1.321791 -1.147272,-2.022285 -0.611213,-1.878748 -0.35134,-4.218678 0.272721,-6.05693 1.085163,-3.1964775 3.754226,-5.6736192 6.972924,-6.6374642 1.189804,-0.3562878 2.849487,-0.6908004 4.015891,-0.082617 1.821094,0.9495549 1.931909,3.1333332 1.85252,4.9383887 -0.04933,1.1216115 -0.06711,2.2932445 -0.578898,3.3308845 -0.644819,1.307378 -1.734073,2.441838 -2.403102,3.772602 -0.660647,1.3141 -1.053919,2.795692 -1.330612,4.230045 -0.265848,1.378157 -0.353605,2.824219 -0.136046,4.217128 0.06956,0.445436 0.03498,1.100943 0.496382,1.353642 0.512195,0.280527 1.087784,-0.145686 1.109141,-0.694462 0.03526,-0.905362 -0.284916,-1.840333 -0.257727,-2.767743 0.06104,-2.081657 0.718776,-4.103758 1.577105,-5.993634 2.403684,-5.292441 8.110081,-9.5340291 13.906642,-10.0953526 2.066014,-0.2000641 4.461669,-0.1610634 6.29508,0.9666792 2.959157,1.8201929 0.247601,5.8073504 -0.922494,8.0059034 -1.024855,1.92566 -2.015294,3.845804 -3.773314,5.222086 -3.065635,2.399965 -7.373549,2.439772 -10.884785,3.892905 -1.479188,0.612166 -3.035342,1.829891 -3.775302,3.259904 -0.236709,0.457429 -0.61405,0.978515 -0.494754,1.522291 0.270059,1.231007 1.944862,0.252351 2.551507,0.007 3.513057,-1.420426 7.060793,-0.416785 10.155082,1.484006 3.619858,2.223644 6.460936,6.391677 7.853637,10.337567 0.620245,1.757321 0.853272,4.542742 -1.601456,4.829519 -0.338251,0.03959 -0.723807,-0.0062 -1.054283,-0.08633 -1.300808,-0.31839 -2.289309,-1.248949 -3.316062,-2.041936 C 53.77787,43.164329 52.434134,42.199963 51.031952,41.301502 49.070854,40.044905 47.021743,38.951274 44.90389,37.98141 43.961978,37.550054 42.673395,37.27059 41.832924,36.677837 41.616649,36.52534 41.687639,36.21325 41.671588,35.985248 c -0.02978,-0.423161 -0.163815,-0.900369 -0.305873,-1.300918 -0.61716,-1.740248 -2.13935,-2.851304 -3.973573,-2.851304 m -5.534965,-6.193905 c -1.202386,-0.41878 -2.386639,-1.45244 -3.49231,-2.099257 -2.08545,-1.219996 -4.408543,-2.221065 -6.278204,-3.774946 -0.977806,-0.812651 -1.469146,-3.465606 -3.330882,-2.991 -2.301266,0.586655 -0.238237,3.165252 0.865144,3.825134 0.560335,0.335105 1.176281,0.214296 1.693433,0.473143 0.812421,0.406649 1.540292,1.072304 2.334206,1.530885 2.458872,1.420287 5.051247,2.66576 7.35104,4.344588 1.363168,0.995099 2.432957,2.208755 3.690958,3.303936 v 0.06588 0.06588 l -0.527144,0.263567 c -0.813508,-1.070865 -2.710047,-1.381742 -3.953561,-1.383741 -1.361453,-0.0022 -2.718948,-0.05724 -4.085341,0.0027 -1.294807,0.05669 -2.586897,0.249454 -3.887661,0.192486 C 16.64075,29.21335 12.335979,26.295766 8.940986,21.998348 7.9796832,20.781523 6.7164621,19.224172 6.2540304,17.71304 5.7696309,16.130116 6.8394911,15.19903 8.2017265,14.611101 c 2.2401615,-0.966828 5.2617885,-1.110388 7.6376465,-0.824065 4.819845,0.580874 9.374977,3.040545 12.572318,6.712558 0.77304,0.887797 1.318821,1.916165 1.954313,2.900241 0.475324,0.736065 1.10868,1.454175 1.491174,2.239382 m -5.534983,-9.422716 v 0.131789 h -0.131789 v -0.131789 h 0.131789 m 10.806389,15.814225 c -0.192887,0.3407 -0.233078,0.804446 0.116288,1.067196 0.292582,0.220057 0.822698,0.165969 1.172647,0.297637 0.702267,0.264208 1.198395,0.946017 1.49926,1.600337 0.794597,1.728078 -0.05359,3.715046 -0.723093,5.337312 -1.080944,2.619164 -2.304868,5.240532 -3.695981,7.709391 -0.991181,1.759058 -1.851391,3.578002 -2.948391,5.279991 -1.132583,1.757183 -3.086478,4.520971 -5.481089,2.954239 -1.860293,-1.217151 -2.432888,-3.91171 -2.95017,-5.917018 -0.795386,-3.083443 -1.526282,-6.033907 -1.038111,-9.2359 0.246373,-1.616007 0.935194,-3.44824 2.189658,-4.563366 0.801556,-0.712529 1.71632,-1.286646 2.699923,-1.71052 1.035938,-0.446426 2.276497,-0.545859 3.264277,-1.048689 0.45122,-0.229697 0.509474,-0.895938 0.09237,-1.197149 -0.498465,-0.359973 -1.313229,0.06735 -1.841132,0.195392 -1.895002,0.459619 -3.773473,1.229887 -5.221326,2.568741 -0.96738,0.894563 -1.713212,2.038573 -2.220471,3.25167 -0.239563,0.572906 -0.395941,1.671833 -0.793049,2.126562 -0.185251,0.212144 -0.602088,0.308069 -0.847403,0.445797 -0.450574,0.252957 -0.884338,0.588188 -1.260297,0.941928 -1.192196,1.12171 -1.961772,2.649183 -2.745425,4.064332 -1.077639,1.94605 -2.60913,5.105507 -5.231142,5.203325 -0.346024,0.01252 -0.76271,0.05374 -1.100395,-0.02872 C 7.55091,50.75869 7.109727,48.138919 6.7350105,46.005915 5.8598735,41.024332 8.768694,35.652054 12.769728,32.812134 c 1.240358,-0.880401 2.664182,-1.514984 4.11961,-1.930304 0.449876,-0.128382 0.990258,-0.359464 1.459857,-0.359464 0.383798,0 0.805625,0.176912 1.186067,0.239363 1.019955,0.167421 2.196506,0.317446 3.228484,0.27944 2.723619,-0.10031 5.640422,-0.604857 8.357431,-0.113484 0.544592,0.09848 1.721608,0.396981 1.997267,0.939582 0.213471,0.420175 -0.264288,0.811221 0.273383,1.152707 1.106356,0.702672 2.737576,-0.678527 3.736761,-0.989203 m 0.19767,-0.131788 -0.06588,0.06588 z"
       id="path1" /></g></svg>
